<?xml version="1.0" encoding="utf-8"?>
<!-- Generator: Adobe Illustrator 19.0.0, SVG Export Plug-In . SVG Version: 6.00 Build 0)  -->
<svg version="1.1" id="Layer_1" xmlns="http://www.w3.org/2000/svg" xmlns:xlink="http://www.w3.org/1999/xlink" x="0px" y="0px"
	 viewBox="-135 101 16 16" style="enable-background:new -135 101 16 16;" xml:space="preserve">
<style type="text/css">
	.st0{fill:#0066B3;}
</style>
<path class="st0" d="M-129.6,109.9c1.3-1.3,2.5-2.5,4.2-4.2c-0.2-0.5-0.5-0.9-1-1.3c-0.4-0.4-0.9-0.7-1.3-1
	c-1.7,1.7-2.9,2.9-4.2,4.2c0.4,0.3,0.9,0.6,1.3,1C-130.2,109-129.8,109.4-129.6,109.9"/>
<path class="st0" d="M-131.8,109.8c-0.4-0.4-0.9-0.7-1.3-1c-0.1,0.1-0.2,0.2-0.2,0.2c-0.2,0.2-2.1,3.1-1.5,3.8
	c0.6,0.6,3.6-1.3,3.8-1.5c0,0,0.1-0.1,0.2-0.2C-131.1,110.7-131.4,110.2-131.8,109.8"/>
<path class="st0" d="M-125.1,103.1c0.4,0.4,0.7,0.8,1,1.3c0,0,0.1-0.1,0.1-0.1c0.7-0.7,1.7-1.7,0.5-2.8c-1.1-1.1-2.1-0.2-2.8,0.5
	c0,0-0.1,0.1-0.1,0.1C-126,102.4-125.5,102.7-125.1,103.1"/>
</svg>
