<svg id="Layer_1" data-name="Layer 1" xmlns="http://www.w3.org/2000/svg" xmlns:xlink="http://www.w3.org/1999/xlink" viewBox="0 0 40 38"><defs><style>.cls-1{fill:#7b0663;}.cls-2{fill:#f9f9f9;}</style><symbol id="PIdarkpurple" data-name="PIdarkpurple" viewBox="0 0 26.84 25"><path class="cls-1" d="M12.41.71a1.57,1.57,0,0,0-1.2-.45L1.53,0A1.61,1.61,0,0,0,0,1.76L1.68,11.3a1.62,1.62,0,0,0,.16.57,1.62,1.62,0,0,0,.55,1.05L15.92,24.61a1.63,1.63,0,0,0,2.3-.17l8.23-9.53a1.63,1.63,0,0,0-.17-2.3L12.75.93A1.6,1.6,0,0,0,12.41.71Z"/><circle class="cls-2" cx="8.23" cy="7.27" r="4.54" transform="translate(-1.27 1.77) rotate(-11.39)"/><circle class="cls-1" cx="8.23" cy="7.27" r="2.98" transform="translate(-1.27 1.77) rotate(-11.39)"/></symbol></defs><title>Artboard 3</title><use width="26.84" height="25" transform="translate(1.32 1.63) scale(1.4)" xlink:href="#PIdarkpurple"/></svg>