<?xml version="1.0" encoding="utf-8"?>
<!-- Generator: Adobe Illustrator 23.0.1, SVG Export Plug-In . SVG Version: 6.00 Build 0)  -->
<svg version="1.1" id="Layer_1" xmlns="http://www.w3.org/2000/svg" xmlns:xlink="http://www.w3.org/1999/xlink" x="0px" y="0px"
	 viewBox="0 0 10 20" style="enable-background:new 0 0 10 20;" xml:space="preserve">
<style type="text/css">
	.st0{clip-path:url(#SVGID_1_);}
	.st1{clip-path:url(#SVGID_2_);}
	.st2{opacity:0.3;}
	.st3{fill:#333333;}
	.st4{clip-path:url(#SVGID_3_);}
	.st5{clip-path:url(#SVGID_4_);fill:#333333;}
</style>
<g>
	<g id="sort_x5F_descend_5_">
		<g>
			<g>
				<polygon id="SVGID_24_" points="5,4.6 8.6,8.2 9.4,7.5 5,3.1 0.6,7.5 1.4,8.2 				"/>
			</g>
			<g>
				<g>
					<polygon id="SVGID_23_" points="5,4.6 8.6,8.2 9.4,7.5 5,3.1 0.6,7.5 1.4,8.2 					"/>
				</g>
				<g>
					<defs>
						<polygon id="SVGID_25_" points="5,4.6 8.6,8.2 9.4,7.5 5,3.1 0.6,7.5 1.4,8.2 						"/>
					</defs>
					<use xlink:href="#SVGID_25_"  style="overflow:visible;"/>
					<clipPath id="SVGID_1_">
						<use xlink:href="#SVGID_25_"  style="overflow:visible;"/>
					</clipPath>
					<g class="st0">
						<g>
							<g>
								<rect id="SVGID_22_" x="-3" y="1.9" width="16" height="16"/>
							</g>
							<g>
								<g>
									<rect id="SVGID_21_" x="-3" y="1.9" width="16" height="16"/>
								</g>
								<g>
									<defs>
										<rect id="SVGID_27_" x="-3" y="1.9" width="16" height="16"/>
									</defs>
									<use xlink:href="#SVGID_27_"  style="overflow:visible;"/>
									<clipPath id="SVGID_2_">
										<use xlink:href="#SVGID_27_"  style="overflow:visible;"/>
									</clipPath>
									<rect x="-4.3" y="-1.9" class="st1" width="18.7" height="15.1"/>
								</g>
							</g>
						</g>
					</g>
				</g>
			</g>
		</g>
	</g>
	<g id="sort_x5F_descend_4_" class="st2">
		<g>
			<g>
				<polygon id="SVGID_20_" class="st3" points="5,17.4 1.4,13.8 0.6,14.5 5,18.9 9.4,14.5 8.6,13.8 				"/>
			</g>
			<g>
				<g>
					<polygon id="SVGID_19_" class="st3" points="5,17.4 1.4,13.8 0.6,14.5 5,18.9 9.4,14.5 8.6,13.8 					"/>
				</g>
				<g>
					<defs>
						<polygon id="SVGID_29_" points="5,17.4 1.4,13.8 0.6,14.5 5,18.9 9.4,14.5 8.6,13.8 						"/>
					</defs>
					<clipPath id="SVGID_3_">
						<use xlink:href="#SVGID_29_"  style="overflow:visible;"/>
					</clipPath>
					<g class="st4">
						<g>
							<g>
								<rect id="SVGID_18_" x="-3" y="4.1" class="st3" width="16" height="16"/>
							</g>
							<g>
								<g>
									<rect id="SVGID_17_" x="-3" y="4.1" class="st3" width="16" height="16"/>
								</g>
								<g>
									<defs>
										<rect id="SVGID_31_" x="-3" y="4.1" width="16" height="16"/>
									</defs>
									<clipPath id="SVGID_4_">
										<use xlink:href="#SVGID_31_"  style="overflow:visible;"/>
									</clipPath>
									<rect x="-4.4" y="8.8" class="st5" width="18.7" height="15.1"/>
								</g>
							</g>
						</g>
					</g>
				</g>
			</g>
		</g>
	</g>
</g>
</svg>
