<?xml version="1.0" encoding="utf-8"?>
<!-- Generator: Adobe Illustrator 23.0.1, SVG Export Plug-In . SVG Version: 6.00 Build 0)  -->
<svg version="1.1" id="Layer_1" xmlns="http://www.w3.org/2000/svg" xmlns:xlink="http://www.w3.org/1999/xlink" x="0px" y="0px"
	 viewBox="0 0 10 20" style="enable-background:new 0 0 10 20;" xml:space="preserve">
<style type="text/css">
	.st0{opacity:0.3;}
	.st1{fill:#333333;}
	.st2{clip-path:url(#SVGID_4_);}
	.st3{clip-path:url(#SVGID_8_);fill:#333333;}
	.st4{clip-path:url(#SVGID_12_);}
	.st5{clip-path:url(#SVGID_16_);fill:#333333;}
</style>
<g id="sort_x5F_descend_6_" class="st0">
	<g>
		<g>
			<polygon id="SVGID_15_" class="st1" points="5,3.6 8.6,7.2 9.4,6.5 5,2.1 0.6,6.5 1.4,7.2 			"/>
		</g>
		<g>
			<g>
				<polygon id="SVGID_13_" class="st1" points="5,3.6 8.6,7.2 9.4,6.5 5,2.1 0.6,6.5 1.4,7.2 				"/>
			</g>
			<g>
				<defs>
					<polygon id="SVGID_2_" points="5,3.6 8.6,7.2 9.4,6.5 5,2.1 0.6,6.5 1.4,7.2 					"/>
				</defs>
				<clipPath id="SVGID_4_">
					<use xlink:href="#SVGID_2_"  style="overflow:visible;"/>
				</clipPath>
				<g class="st2">
					<g>
						<g>
							<rect id="SVGID_11_" x="-3" y="0.9" class="st1" width="16" height="16"/>
						</g>
						<g>
							<g>
								<rect id="SVGID_9_" x="-3" y="0.9" class="st1" width="16" height="16"/>
							</g>
							<g>
								<defs>
									<rect id="SVGID_6_" x="-3" y="0.9" width="16" height="16"/>
								</defs>
								<clipPath id="SVGID_8_">
									<use xlink:href="#SVGID_6_"  style="overflow:visible;"/>
								</clipPath>
								<rect x="-4.3" y="-2.9" class="st3" width="18.7" height="15.1"/>
							</g>
						</g>
					</g>
				</g>
			</g>
		</g>
	</g>
</g>
<g id="sort_x5F_descend_1_" class="st0">
	<g>
		<g>
			<polygon id="SVGID_7_" class="st1" points="5,16.4 1.4,12.8 0.6,13.5 5,17.9 9.4,13.5 8.6,12.8 			"/>
		</g>
		<g>
			<g>
				<polygon id="SVGID_5_" class="st1" points="5,16.4 1.4,12.8 0.6,13.5 5,17.9 9.4,13.5 8.6,12.8 				"/>
			</g>
			<g>
				<defs>
					<polygon id="SVGID_10_" points="5,16.4 1.4,12.8 0.6,13.5 5,17.9 9.4,13.5 8.6,12.8 					"/>
				</defs>
				<clipPath id="SVGID_12_">
					<use xlink:href="#SVGID_10_"  style="overflow:visible;"/>
				</clipPath>
				<g class="st4">
					<g>
						<g>
							<rect id="SVGID_3_" x="-3" y="3.1" class="st1" width="16" height="16"/>
						</g>
						<g>
							<g>
								<rect id="SVGID_1_" x="-3" y="3.1" class="st1" width="16" height="16"/>
							</g>
							<g>
								<defs>
									<rect id="SVGID_14_" x="-3" y="3.1" width="16" height="16"/>
								</defs>
								<clipPath id="SVGID_16_">
									<use xlink:href="#SVGID_14_"  style="overflow:visible;"/>
								</clipPath>
								<rect x="-4.4" y="7.8" class="st5" width="18.7" height="15.1"/>
							</g>
						</g>
					</g>
				</g>
			</g>
		</g>
	</g>
</g>
</svg>
